<svg xmlns="http://www.w3.org/2000/svg" xmlns:xlink="http://www.w3.org/1999/xlink" version="1.1" id="Layer_1" x="0px" y="0px" width="100px" height="100px" viewBox="0 0 100 100" enable-background="new 0 0 100 100" xml:space="preserve">
<path fill="#000000" d="M54.067,3.86C48.317,3.9,42.885,5.205,37.99,7.462c0.346,0.038,0.589,0.064,0.589,0.064  s7.039,0.622,10.387-0.744c3.341-1.355,6.04,2.304,4.705,2.319c-1.344,0.005-2.989,4.039-1.644,4.039  c1.334-0.015,1.674,1.992,3.668-0.368c2-2.359,1.675-1.344,5.38,0.978c3.694,2.316-2.34,2.349-2.34,2.349s-1.314,2.695-2.994,2.705  c-1.67,0.01-5.668,4.39-6.647,7.414c-0.984,3.022-1.314,3.027-2.68,0.69c-1.35-2.339-3.361-0.652-5.67,2.38  c-2.324,3.032,4.39,6.001,4.39,6.001l3.372,2.988c0,0,2.68-0.68,4.015-1.362c1.323-0.678,1.01,1.335,5.72,3.316  c4.697,1.984,0.685,2.337,5.044,3.651c4.358,1.307,5.395,4.658,5.395,4.658l-1.325,2.683l-1.314,4.033c0,0-2,0.679-2.983,4.038  c-0.99,3.349-3.324,4.034-4.994,5.724c-1.669,1.68,0.371,5.358,1.391,7.357c1.021,2.015-2.004-0.319-3.35-0.644  c-1.35-0.331-2.044-4.345-2.729-6.343c-0.674-2,0.299-6.699,0.278-9.047c-0.01-2.342-1.358-3.003-3.044-5.011  c-1.685-1.999-1.695-2.327-2.718-6.008c-1.035-3.68-0.378-4.687,0.621-5.364c1.001-0.671-2.684-1.986-4.368-2.654  c-1.672-0.657-3.362-1.992-5.712-3.636c-2.357-1.659-3.044-4.333-4.067-5.668c-1.005-1.335-1.386-7.366-1.401-9.378  c-0.01-2.001,2.309-4.367,1.297-6.043c-0.455-0.731-1.83-0.863-3.408-0.843C21.27,18.939,15.087,30.377,15.17,43.272  c0.046,7.464,2.22,14.393,5.889,20.31c1.353,0.467,4.458,1.478,5.788,1.478c1.715,0,6.452-0.422,7.736,3.013  c1.286,3.437,3.445,3.867,0.426,7.309c-0.366,0.421-0.693,0.771-0.979,1.061c5.999,3.648,13.021,5.754,20.559,5.703  c21.608-0.137,39.024-17.786,38.882-39.409C93.324,21.121,75.685,3.723,54.067,3.86z"/>
<path fill="#000000" d="M67.979,92.165c5.206-1.3,10.151-3.411,14.658-6.22l-2.527-3.928c-9.819,6.1-21.911,8.571-34.104,5.938  C21.06,82.565,5.217,57.976,10.601,33.046c2.634-12.199,9.87-22.19,19.484-28.623l-2.53-3.917  C16.941,7.579,8.944,18.606,6.037,32.059c-5.647,26.152,9.926,51.972,35.161,59.483c-7.758,1.62-13.017,4.749-13.017,8.344h50.228  C78.409,96.707,74.295,93.894,67.979,92.165z"/>
</svg>