<?xml version="1.0" encoding="utf-8"?>
<!-- Generator: Adobe Illustrator 15.1.0, SVG Export Plug-In . SVG Version: 6.00 Build 0)  -->
<!DOCTYPE svg PUBLIC "-//W3C//DTD SVG 1.1//EN" "http://www.w3.org/Graphics/SVG/1.1/DTD/svg11.dtd">
<svg version="1.1" id="Layer_1" xmlns="http://www.w3.org/2000/svg" xmlns:xlink="http://www.w3.org/1999/xlink" x="0px" y="0px"
	 width="100px" height="100px" viewBox="0 0 100 100" enable-background="new 0 0 100 100" xml:space="preserve">
<path d="M88.895,11.105c-14.807-14.807-38.812-14.807-53.619,0c-14.807,14.806-14.807,38.812,0,53.619
	c14.807,14.807,38.812,14.807,53.619,0S103.702,25.912,88.895,11.105z M84.662,60.492c-12.469,12.468-32.684,12.468-45.153,0
	c-12.468-12.469-12.468-32.685,0-45.153c12.469-12.468,32.685-12.469,45.153,0S97.13,48.022,84.662,60.492z"/>
<rect x="12.357" y="61.701" transform="matrix(0.7071 0.7071 -0.7071 0.7071 63.1103 10.9445)" width="11.973" height="39.91"/>
</svg>
